<?xml version="1.0" encoding="utf-8"?>
<!-- Generator: Adobe Illustrator 19.2.1, SVG Export Plug-In . SVG Version: 6.00 Build 0)  -->
<svg version="1.1" id="Layer_1" xmlns="http://www.w3.org/2000/svg" xmlns:xlink="http://www.w3.org/1999/xlink" x="0px" y="0px"
	 viewBox="0 0 25 25" style="enable-background:new 0 0 25 25;" xml:space="preserve">
<style type="text/css">
	.st0{fill:#009CA7;}
</style>
<path class="st0" d="M12.5,0C5.6,0,0,5.6,0,12.5S5.6,25,12.5,25S25,19.4,25,12.5S19.4,0,12.5,0z M13.5,16.7v-3.2h3.1
	c-0.1,1.2-0.2,2.3-0.5,3.4C15.3,16.8,14.4,16.8,13.5,16.7z M15.6,19c-0.5,1.4-1.2,2.6-2,3.6v-3.8C14.2,18.8,14.9,18.9,15.6,19z
	 M13.5,11.5V8.3c0.9,0,1.8-0.1,2.7-0.2c0.2,1.1,0.4,2.2,0.5,3.4H13.5z M13.5,6.2V2.4c0.8,1,1.5,2.2,2.1,3.6
	C14.9,6.2,14.2,6.2,13.5,6.2z M16.4,2.8c1.3,0.5,2.5,1.3,3.4,2.2c-0.7,0.2-1.4,0.5-2.1,0.6C17.3,4.7,16.9,3.7,16.4,2.8z M8.8,17
	c-0.3-1.1-0.4-2.2-0.5-3.4h3.1v3.2C10.6,16.8,9.7,16.8,8.8,17z M11.5,18.8v3.8c-0.8-1-1.5-2.2-2-3.6C10.1,18.9,10.8,18.8,11.5,18.8z
	 M8.3,11.5c0.1-1.2,0.2-2.3,0.5-3.4c0.9,0.1,1.8,0.2,2.7,0.2v3.1H8.3z M9.4,6.1c0.5-1.4,1.2-2.6,2.1-3.6v3.8
	C10.8,6.2,10.1,6.2,9.4,6.1z M7.3,5.7C6.6,5.5,5.9,5.3,5.2,5.1c1-1,2.1-1.7,3.4-2.2C8.1,3.7,7.7,4.7,7.3,5.7z M6.7,7.7
	c-0.3,1.2-0.5,2.5-0.5,3.8H2.1c0.2-1.7,0.8-3.3,1.7-4.7C4.7,7.1,5.7,7.4,6.7,7.7z M6.8,17.3c-1,0.2-2,0.6-2.9,0.9
	c-0.9-1.4-1.5-3-1.7-4.7h4.1C6.3,14.9,6.5,16.1,6.8,17.3z M7.3,19.3c0.4,1,0.8,2,1.3,2.8c-1.3-0.5-2.4-1.3-3.4-2.2
	C5.9,19.7,6.6,19.5,7.3,19.3z M17.7,19.3c0.7,0.2,1.4,0.4,2.1,0.6c-1,0.9-2.1,1.7-3.4,2.2C16.9,21.3,17.3,20.4,17.7,19.3z
	 M18.2,17.3c0.3-1.2,0.5-2.5,0.5-3.8h4.1c-0.2,1.7-0.8,3.4-1.7,4.7C20.2,17.9,19.3,17.6,18.2,17.3z M18.8,11.5
	c-0.1-1.3-0.2-2.6-0.5-3.8c1-0.2,2-0.6,2.9-0.9c0.9,1.4,1.5,3,1.7,4.7H18.8z"/>
</svg>
